<svg xmlns="http://www.w3.org/2000/svg" width="152" height="42" viewBox="0 0 152 42" fill="none"><g clip-path="url(#clip0_2035_224236)"><g clip-path="url(#clip1_2035_224236)"><path d="M45.9339 17.0287C45.1279 16.3378 45.0127 16.2227 45.0127 15.9924C45.0127 15.8772 45.3582 12.5378 45.1279 9.42874C44.5521 2.17419 41.2127 0.562073 40.0612 0.562073C39.9844 0.562073 39.9077 0.600457 39.8309 0.677224C39.4854 1.13783 39.4854 2.51965 39.946 5.05298C40.1763 6.08935 40.7521 7.93177 41.3279 9.88935C42.0188 12.0772 42.7097 14.2651 42.94 15.5318L43.0551 15.7621L41.3279 16.3378L41.2127 16.1075C40.8673 15.1863 40.2915 13.8045 39.8309 12.0772C38.9097 9.31359 37.7582 5.85904 36.837 4.47722C36.146 3.32571 34.6491 1.82874 33.9582 1.82874H33.843C33.4976 1.94389 33.1521 2.28935 33.037 2.98025C32.5763 4.82268 33.1521 8.27722 35.5703 11.7318C37.9885 14.956 39.14 16.7984 39.2551 17.3742L39.3703 17.6045L39.2551 17.7197C39.2551 17.7197 38.7945 18.2954 38.1036 18.2954C37.7582 18.2954 37.4127 18.1803 37.1824 17.8348C31.7703 12.5378 26.243 9.88935 20.946 9.88935C17.7218 9.88935 15.3036 10.8106 14.1521 11.3863C13.6915 11.6166 13.346 11.7318 13.1157 11.7318C12.8854 11.7318 12.8854 11.6166 12.7703 11.6166C12.6935 11.5399 12.6551 11.4247 12.6551 11.2712C12.6551 9.77419 12.54 8.04692 12.1945 7.58632C12.0794 7.47116 11.9642 7.47116 11.8491 7.47116C9.77635 7.35601 6.78241 8.85298 5.74604 11.0409C5.05513 12.3075 5.28544 13.5742 6.0915 14.8409C6.89756 15.9924 8.16423 15.9924 8.97029 16.1075C9.43089 16.1075 9.77635 16.2227 9.8915 16.453C10.0066 16.7984 9.66119 16.9136 9.43089 17.259C1.47392 23.4772 -0.483653 28.7742 0.0921044 30.6166C0.207256 30.8469 0.322407 31.0772 0.55271 31.0772C0.783013 31.0772 0.898165 30.9621 1.12847 30.8469C7.34665 25.55 13.68 22.7863 20.1285 22.7863C31.8739 22.7863 40.1648 31.5378 42.4679 34.3015C42.9285 34.8772 43.5042 35.5681 43.9648 36.259C45.2315 37.8712 46.4982 39.4833 47.6497 40.2893C48.5709 40.8651 49.6073 40.9803 50.0679 40.4045C50.4133 40.059 50.5285 39.253 50.2982 38.2166C49.8376 35.7984 47.6497 33.15 46.1527 31.653C44.886 30.2712 44.4254 29.6954 44.5406 29.2348C44.6557 29.1196 44.6557 28.8893 45.0012 28.8893C48.686 28.0833 50.8739 26.8166 51.2194 24.9742C51.7951 21.9803 47.6497 18.5257 45.9224 17.0287H45.9339ZM82.7824 14.2651C78.8673 14.2651 75.643 17.259 75.643 20.8287C75.643 21.6348 75.8733 22.4409 76.1036 23.2469L76.2188 23.3621L76.1036 23.4772C75.2976 24.3984 74.6067 24.9742 73.9157 24.9742C72.5339 24.9742 72.5339 23.0166 72.5339 20.5984C72.4188 17.6045 72.4188 14.2651 69.7703 14.2651C66.6612 14.2651 64.243 18.2954 62.746 21.75L62.1703 22.9015L62.4006 18.9863C62.6309 14.956 62.746 11.156 62.746 7.35601C62.746 3.90147 62.6309 1.94389 62.5157 1.48328C62.4006 1.25298 61.7097 0.792376 61.1339 0.792376C60.7885 0.792376 59.5218 1.36813 59.2915 1.59844C59.0612 2.05904 58.8309 6.78026 58.8309 11.2712C58.8309 21.8651 59.5218 26.356 59.637 26.9318V27.0469C59.7521 27.2772 60.3279 27.3924 60.7885 27.3924C61.2491 27.3924 61.94 27.2772 62.0551 27.0469L62.1703 26.8166C63.437 23.4772 65.8551 17.8348 67.9279 17.8348C69.0794 17.8348 69.0794 19.3318 69.1945 21.059C69.3097 23.8227 69.4248 27.2772 73.2248 27.2772C74.6067 27.2772 75.9885 26.4712 77.2551 24.9742L77.4854 24.7439L77.7157 24.9742C79.0976 26.356 81.0551 27.2772 83.1279 27.2772C87.1582 27.2772 90.3824 24.2833 90.3824 20.7136C89.9218 17.259 86.6976 14.2651 82.7824 14.2651ZM82.7824 24.859C80.94 24.859 79.5582 23.0166 79.5582 20.8287C79.5582 18.6409 81.0551 16.7984 82.7824 16.7984C84.6248 16.7984 86.1218 18.6409 86.1218 20.8287C86.1218 23.0166 84.6248 24.859 82.7824 24.859ZM98.5582 14.2651C97.1763 14.2651 95.6794 14.7257 94.5279 15.5318L94.1824 15.7621L94.0673 15.4166C93.9521 14.956 93.9521 14.6106 93.9521 14.6106C93.8369 14.3803 93.146 14.2651 92.6854 14.2651C92.34 14.2651 91.6491 14.3803 91.5339 14.6106C91.4188 15.0712 90.843 20.253 90.843 29.5803V29.6954C90.9582 29.8106 90.9582 29.9257 90.9582 30.3863C91.0733 34.9924 91.4188 39.4833 91.6491 40.059C91.8794 40.2893 93.146 40.8651 93.4915 40.8651H93.6067C94.2976 40.8651 94.8733 40.4045 94.8733 40.1742C94.8733 40.059 94.9885 39.5984 94.9885 36.6045V34.3015C94.9885 32.6893 94.8733 31.653 94.8733 30.2712C94.7582 29.35 94.7582 28.3136 94.643 26.7015V26.356L94.9885 26.5863C96.14 27.1621 97.2915 27.5075 98.443 27.5075C102.473 27.5075 105.698 24.5136 105.698 20.9439C105.813 17.259 102.588 14.2651 98.5582 14.2651ZM98.5582 24.859C95.5642 24.859 94.5279 22.7863 94.5279 20.8287C94.5279 18.4106 96.0248 16.7984 98.5582 16.7984C100.401 16.7984 101.898 18.6409 101.898 20.8287C101.898 23.0166 100.401 24.859 98.5582 24.859ZM114.449 14.2651C113.067 14.2651 111.57 14.7257 110.419 15.5318L110.073 15.7621L109.958 15.4166C109.843 14.956 109.843 14.6106 109.843 14.6106C109.728 14.3803 109.037 14.2651 108.576 14.2651C108.231 14.2651 107.54 14.3803 107.425 14.6106C107.31 15.0712 106.734 20.253 106.734 29.5803V29.6954C106.849 29.8106 106.849 29.9257 106.849 30.3863C106.964 34.9924 107.31 39.4833 107.54 40.059C107.77 40.2893 109.037 40.8651 109.382 40.8651H109.498C110.188 40.8651 110.764 40.4045 110.764 40.1742C110.764 40.059 110.879 39.5984 110.879 36.6045V34.3015C110.879 32.6893 110.764 31.653 110.764 30.2712C110.649 29.35 110.649 28.3136 110.534 26.8166V26.4712L110.879 26.7015C112.031 27.2772 113.182 27.6227 114.334 27.6227C118.364 27.6227 121.588 24.6287 121.588 21.059C121.704 17.259 118.479 14.2651 114.449 14.2651ZM114.449 24.859C111.455 24.859 110.419 22.7863 110.419 20.8287C110.419 18.4106 111.916 16.7984 114.449 16.7984C116.291 16.7984 117.788 18.6409 117.788 20.8287C117.788 23.0166 116.291 24.859 114.449 24.859ZM151.643 19.2166C151.643 19.2166 151.528 19.3318 151.528 19.4469C150.491 21.5196 148.304 24.9742 146.691 24.9742C146.231 24.9742 146.001 24.6287 146.001 24.1681C146.001 23.5924 146.461 22.4409 147.037 21.1742C147.498 19.9075 148.188 18.5257 148.188 17.7197C148.188 16.3378 147.267 15.6469 145.655 15.6469C145.54 15.6469 142.085 15.6469 141.049 14.956L140.934 14.8409V14.7257C140.934 13.9197 140.704 11.8469 138.976 11.8469C138.055 11.8469 137.479 13.2287 137.479 13.9197C137.479 15.7621 138.401 16.5681 138.861 16.7984L138.976 16.9136L139.091 17.0287L138.976 17.1439C138.516 18.8712 137.479 20.3681 137.019 21.2893C135.407 23.5924 133.449 24.6287 130.801 24.6287C128.843 24.6287 127.346 23.5924 126.885 21.8651L126.77 21.4045L127.116 21.5197C128.152 21.8651 129.073 21.9803 129.995 21.9803C132.528 21.9803 135.176 20.7136 135.176 17.95C135.176 15.6469 132.988 13.9197 129.995 13.9197C126.079 13.9197 122.855 16.9136 122.855 20.4833C122.855 23.1318 124.928 27.0469 130.685 27.0469C135.291 27.0469 137.595 22.9015 138.285 21.6348L138.401 21.5197C139.207 20.1378 139.898 18.4106 140.128 17.7197L140.243 17.4893L140.473 17.6045C140.819 17.7197 142.431 18.0651 143.467 18.0651C143.928 18.0651 144.273 18.2954 144.273 18.756C144.273 18.8712 144.158 18.9863 144.158 19.1015L144.043 19.2166L143.813 19.5621C143.237 20.8287 142.431 22.6712 142.431 23.9378C142.431 25.55 143.467 27.1621 145.77 27.1621C148.995 27.1621 150.952 23.1318 151.643 21.8651L151.758 21.75C151.873 21.4045 151.988 20.9439 151.988 20.3681C151.873 19.9075 151.758 19.2166 151.643 19.2166ZM126.77 20.3681C127.001 18.4106 128.498 16.7984 129.995 16.7984C131.376 16.7984 132.298 17.4893 132.298 18.756C132.298 20.253 130.225 20.8287 128.498 20.8287C127.807 20.8287 127.231 20.7136 126.885 20.5984L126.655 20.4833L126.77 20.3681Z" fill="#FA6866"></path></g></g><defs><clipPath id="clip0_2035_224236"><rect width="152" height="40.6995" fill="white" transform="translate(0 0.363892)"></rect></clipPath><clipPath id="clip1_2035_224236"><rect width="152" height="40.6995" fill="white" transform="translate(0 0.363892)"></rect></clipPath></defs></svg>