<svg xmlns="http://www.w3.org/2000/svg" width="132" height="146" viewBox="0 0 132 146" fill="none"><path fill-rule="evenodd" clip-rule="evenodd" d="M85.4835 47.1698C85.4869 43.1646 84.3017 39.2482 82.0777 35.9161C81.3345 34.8024 80.4863 33.7707 79.5482 32.8332L79.5605 32.8209C76.7238 29.9912 73.111 28.0656 69.1791 27.2876C68.0198 27.0582 66.848 26.9317 65.677 26.9066C64.2095 26.8733 62.7354 26.9993 61.2809 27.2871C57.349 28.0651 53.7362 29.9907 50.8995 32.8204L50.9124 32.8332C49.9741 33.7709 49.1257 34.8027 48.3823 35.9166C46.1583 39.2488 44.9731 43.1651 44.9766 47.1704L44.9789 47.1704L44.9789 59.1087L53.1018 59.1087L53.1018 47.1634L53.1201 47.1634C53.1181 44.7675 53.827 42.4249 55.1573 40.4317C56.4876 38.4385 58.3796 36.8843 60.5939 35.9655C62.154 35.3182 63.8248 35.0068 65.4985 35.0421C66.9914 35.0767 68.4729 35.3869 69.8662 35.965C72.0805 36.8837 73.9724 38.438 75.3027 40.4312C76.633 42.4244 77.342 44.767 77.3399 47.1628L77.3582 47.1628V59.2909H85.4811V47.1698L85.4835 47.1698Z" fill="#3843D0"></path><rect x="37.9688" y="64.0869" width="58.1162" height="47.2693" rx="3.0575" fill="#3843D0"></rect><path fill-rule="evenodd" clip-rule="evenodd" d="M62.035 90.2693C62.1918 89.3699 61.7513 88.489 61.0661 87.8858C59.4402 86.4545 58.4145 84.3586 58.4145 82.0232C58.4145 77.7097 61.9139 74.2129 66.2307 74.2129C70.5475 74.2129 74.0469 77.7097 74.0469 82.0232C74.0469 84.3579 73.0218 86.4533 71.3968 87.8845C70.7119 88.4877 70.2718 89.3683 70.4285 90.2675L71.0763 93.9848C71.3092 95.3207 70.2809 96.5437 68.9248 96.5437L63.5389 96.5437C62.1829 96.5437 61.1546 95.3207 61.3875 93.9848L62.035 90.2693Z" fill="white"></path><path d="M13.6172 98.2318C13.6172 99.9724 14.1121 101.677 15.0443 103.147C15.9764 104.617 17.3074 105.792 18.8818 106.534C20.4563 107.276 22.2093 107.555 23.9364 107.339C25.6635 107.123 27.2935 106.42 28.6362 105.312" stroke="#3843D0" stroke-linecap="round" stroke-linejoin="round"></path><path d="M29.2831 85.0674C28.7297 84.514 28.113 84.0385 27.4499 83.6481C26.0507 82.8242 24.4452 82.3789 22.7938 82.3787C22.2341 82.3787 21.6756 82.4293 21.125 82.53" stroke="#3843D0" stroke-linecap="round" stroke-linejoin="round"></path><path d="M16.9548 84.4752C15.9098 85.3356 15.0686 86.4169 14.4915 87.6413C13.9144 88.8657 13.6158 90.2028 13.6172 91.5564V94.0596" stroke="#3843D0" stroke-linecap="round" stroke-linejoin="round"></path><path d="M26.9642 91.5572V98.2323C26.9642 99.0071 26.7484 99.7666 26.3411 100.426C25.9338 101.085 25.351 101.617 24.658 101.964C23.965 102.31 23.1892 102.457 22.4176 102.387C21.6459 102.318 20.9089 102.035 20.2891 101.57" stroke="#3843D0" stroke-linecap="round" stroke-linejoin="round"></path><path d="M18.625 98.2314V91.5563C18.6256 90.8637 18.7985 90.182 19.1281 89.5728C19.4577 88.9636 19.9337 88.446 20.5132 88.0666C21.0927 87.6872 21.7575 87.4579 22.4477 87.3994C23.1379 87.3409 23.8317 87.455 24.4668 87.7315" stroke="#3843D0" stroke-linecap="round" stroke-linejoin="round"></path><path d="M22.7969 97.3975V92.3911" stroke="#3843D0" stroke-linecap="round" stroke-linejoin="round"></path><path d="M57.6825 61.4648L89.5331 61.4648C91.4667 61.4648 93.0327 63.0352 93.0273 64.9688L92.9158 105.086C92.9104 107.016 91.3416 108.576 89.4118 108.57L38.0021 108.428C36.0723 108.422 34.5122 106.854 34.5175 104.924L34.6292 64.7872C34.6345 62.8612 36.1974 61.3026 38.1235 61.3026L52.9223 61.3026" stroke="black" stroke-linecap="round"></path><path d="M56.4317 21.2992C60.3377 21.2992 62.7454 18.1958 62.7454 14.4503C62.7454 10.6514 60.1771 7.70855 56.512 7.70855C54.1577 7.70855 52.8735 8.88569 52.2047 9.71504H52.1244V0.699219H48.9141V20.9246H51.9639V18.9984H52.0174C52.9003 20.4698 54.6392 21.2992 56.4317 21.2992ZM55.7896 18.6238C53.4353 18.6238 52.0174 16.5103 52.0174 14.5039C52.0174 12.4974 53.4353 10.3304 55.7896 10.3304C58.2777 10.3304 59.4816 12.4439 59.4816 14.4503C59.4816 16.4568 58.2777 18.6238 55.7896 18.6238Z" fill="#040237"></path><path d="M68.5179 21.2992C71.3269 21.2992 73.8685 20.1488 73.8685 17.0187C73.8685 14.5039 71.6212 13.6478 69.7218 13.1929C67.9293 12.7649 66.9394 12.4974 66.9394 11.5075C66.9394 10.4909 67.9828 10.1163 68.9994 10.1163C70.1766 10.1163 71.2467 10.7584 71.8085 11.5075L73.8953 9.66153C72.8519 8.35062 70.9256 7.70855 69.0797 7.70855C66.5381 7.70855 63.9698 8.93919 63.9698 11.8018C63.9698 14.2096 65.8693 14.9854 67.7688 15.4402C69.7218 15.895 70.7116 16.2161 70.7116 17.2862C70.7116 18.4366 69.588 18.8111 68.6516 18.8111C67.2605 18.8111 66.0566 18.1155 65.361 17.2059L63.2475 19.1857C64.4781 20.5501 66.5381 21.2992 68.5179 21.2992Z" fill="#040237"></path><path d="M77.2216 5.64855C78.3988 5.64855 79.3084 4.81921 79.3084 3.72233C79.3084 2.62545 78.3988 1.7961 77.2216 1.7961C76.0445 1.7961 75.1884 2.70571 75.1884 3.72233C75.1884 4.73895 76.0445 5.64855 77.2216 5.64855ZM78.8536 20.9246V7.97608H75.6432V20.9246H78.8536Z" fill="#040237"></path><path d="M104.24 66.48L103.983 86.9837L108.556 91.5572L113.335 86.7782L110.406 83.8491L113.644 80.6117L109.944 76.9118L113.164 73.6911V70.6534L110.411 67.9003L111.684 66.6274" stroke="#3843D0" stroke-miterlimit="10" stroke-linecap="round" stroke-linejoin="round"></path><path d="M111.247 51.0073C112.626 49.6285 112.626 47.393 111.247 46.0142C109.869 44.6354 107.633 44.6354 106.254 46.0142C104.876 47.393 104.876 49.6285 106.254 51.0073C107.633 52.3861 109.869 52.3861 111.247 51.0073Z" stroke="#3843D0" stroke-miterlimit="10" stroke-linecap="round" stroke-linejoin="round"></path><path d="M104.255 62.0758C100.674 60.3017 98.2112 56.47 98.2448 52.0476C98.291 45.9731 103.031 41.0846 108.831 41.1287C114.631 41.1728 119.296 46.1329 119.25 52.2073C119.212 57.1185 116.107 61.2545 111.854 62.6352" stroke="#3843D0" stroke-miterlimit="10" stroke-linecap="round" stroke-linejoin="round"></path><path d="M8.86731 135.444V122.7H6.59931V135.444H8.86731ZM15.0994 135.768C17.6014 135.768 19.7434 134.436 19.7434 131.7C19.7434 129.198 17.6554 128.478 16.0174 127.974C14.5774 127.524 13.5874 127.182 13.5874 126.012C13.5874 124.77 14.7934 124.266 15.8374 124.266C16.7374 124.266 17.6914 124.734 18.1774 125.364L19.6534 123.744C18.6814 122.826 17.2234 122.376 15.9454 122.376C13.6414 122.376 11.2834 123.528 11.2834 126.12C11.2834 128.496 12.9574 129.252 14.5054 129.738C16.1074 130.242 17.4394 130.62 17.4394 131.952C17.4394 133.32 16.1974 133.842 15.1354 133.842C14.1274 133.842 12.9754 133.302 12.3454 132.438L10.7254 133.95C11.7334 135.138 13.4434 135.768 15.0994 135.768ZM28.2253 135.768C32.2033 135.768 35.1013 133.014 35.1013 129.036C35.1013 124.95 32.2033 122.376 28.2253 122.376C24.3013 122.376 21.4033 124.95 21.4033 129.036C21.4033 133.014 24.3013 135.768 28.2253 135.768ZM28.2433 133.734C25.6513 133.734 23.8693 131.754 23.8693 129.036C23.8693 126.408 25.6153 124.374 28.2433 124.374C30.8893 124.374 32.6353 126.408 32.6353 129.036C32.6353 131.754 30.8533 133.734 28.2433 133.734ZM42.8347 122.376L41.3407 121.8L35.7247 135.768L37.2187 136.308L42.8347 122.376ZM46.5548 135.444V122.7H44.2868V135.444H46.5548ZM58.1329 135.444V133.428H51.6349V129.828H57.4849V127.92H51.6349V124.68H57.8089V122.7H49.3669V135.444H58.1329ZM66.5452 135.768C68.7052 135.768 70.3612 134.94 71.4772 133.536L69.6592 132.258C69.0112 133.14 67.9312 133.734 66.5632 133.734C63.9352 133.734 62.2432 131.808 62.2432 129.036C62.2432 126.408 64.0252 124.374 66.6532 124.374C67.6792 124.374 68.8852 124.77 69.5512 125.688L71.2792 124.32C70.2712 122.988 68.3092 122.376 66.6532 122.376C62.7292 122.376 59.7412 124.95 59.7412 129.036C59.7412 133.014 62.5672 135.768 66.5452 135.768ZM85.7024 135.444V133.464H79.9604L83.6324 129.954C84.7664 128.874 85.6844 127.74 85.6844 126.102C85.6844 123.654 83.6504 122.376 81.4364 122.376C79.0964 122.376 77.3864 123.924 77.1344 126.03L79.2404 126.354C79.4024 125.112 80.1764 124.176 81.4004 124.176C82.5524 124.176 83.4344 124.95 83.4344 126.138C83.4344 127.128 82.9304 127.866 82.1384 128.64L77.2244 133.464V135.444H85.7024ZM91.4508 135.444L96.5448 124.68V122.7H87.8868V124.644H94.2768L88.9128 135.444H91.4508ZM103.463 135.768C106.343 135.768 107.945 133.194 107.945 129.072C107.945 124.95 106.343 122.376 103.463 122.376C100.565 122.376 98.9451 124.95 98.9451 129.072C98.9451 133.194 100.565 135.768 103.463 135.768ZM103.463 133.932C101.519 133.932 101.159 130.854 101.159 129.072C101.159 127.29 101.519 124.176 103.463 124.176C105.389 124.176 105.731 127.29 105.731 129.072C105.731 130.854 105.389 133.932 103.463 133.932ZM114.449 135.768C117.329 135.768 118.931 133.194 118.931 129.072C118.931 124.95 117.329 122.376 114.449 122.376C111.551 122.376 109.931 124.95 109.931 129.072C109.931 133.194 111.551 135.768 114.449 135.768ZM114.449 133.932C112.505 133.932 112.145 130.854 112.145 129.072C112.145 127.29 112.505 124.176 114.449 124.176C116.375 124.176 116.717 127.29 116.717 129.072C116.717 130.854 116.375 133.932 114.449 133.932ZM127.11 135.444V122.7H125.148L121.17 125.904L122.43 127.398L124.95 125.328V135.444H127.11Z" fill="#3843D0"></path></svg>