<?xml version="1.0" encoding="UTF-8"?>
<!DOCTYPE svg PUBLIC "-//W3C//DTD SVG 1.1//EN" "http://www.w3.org/Graphics/SVG/1.1/DTD/svg11.dtd">
<!-- Creator: CorelDRAW -->
<svg xmlns="http://www.w3.org/2000/svg" xml:space="preserve" width="8.5in" height="11in" version="1.1" style="shape-rendering:geometricPrecision; text-rendering:geometricPrecision; image-rendering:optimizeQuality; fill-rule:evenodd; clip-rule:evenodd"
viewBox="0 0 8500 11000"
 xmlns:xlink="http://www.w3.org/1999/xlink"
 xmlns:xodm="http://www.corel.com/coreldraw/odm/2003">
 <defs>
  <style type="text/css">
   <![CDATA[
    .fil0 {fill:#FEFEFE}
   ]]>
  </style>
 </defs>
 <g id="Layer_x0020_1">
  <metadata id="CorelCorpID_0Corel-Layer"/>
  <g id="_1572627447168">
   <path class="fil0" d="M4083.89 5330.8c0,120.34 7.5,139.83 120.83,198.62l18.06 9.72c-273.09,0 -277.78,192.28 -277.78,388.89 0,107.05 625,121.53 625,0 0,-181.17 15.7,-388.89 -277.78,-388.89 17.58,-12.21 152.78,-58.34 152.78,-180.56 0,-238.36 -361.11,-235.88 -361.11,-27.78z"/>
   <path class="fil0" d="M3764.44 5178.02c0,136.85 154.75,173 166.67,180.56 -102.01,0 -155.22,6.28 -211.34,52.55 -97.76,80.61 -80.32,213.16 -80.32,336.34 0,48.62 66.78,54.27 116.82,63.74 60.45,11.43 97.57,19.6 160.96,19.6 0,-198.35 39.41,-237.41 194.44,-319.44 -36.18,-54.03 -61.97,-62.97 -69.44,-152.78l-83.33 0c2.99,-1.9 8.25,-6.99 9.82,-4.06 2.05,3.82 12.77,-4.94 19.93,-7.85 100.19,-40.78 31.34,-33.62 99.5,-122.73 25.31,-33.09 37.42,-15.93 37.42,-73.69 0,-208.03 -361.11,-231.21 -361.11,27.78z"/>
   <path class="fil0" d="M4375.55 5150.25c0,40.2 48.91,58.26 74.22,106.33 38.95,73.94 -0.83,86.04 92.44,88.11l-69.44 13.89c-2.23,100.17 -38.34,102.19 -55.56,166.67 163.4,38.07 180.56,172.83 180.56,305.56 63.39,0 263.89,-13.22 263.89,-83.33 0,-223.73 14.29,-388.89 -291.67,-388.89 2.96,-1.88 8.1,-7.12 9.65,-4.24 2.03,3.81 12,-5.07 19.65,-8.13 231.11,-92.2 138.11,-344.13 -31.9,-359.43 -93.79,-8.44 -191.85,69.7 -191.85,163.46z"/>
  </g>
 </g>
</svg>
