<?xml version="1.0" standalone="no"?>
        <!DOCTYPE svg PUBLIC "-//W3C//DTD SVG 1.1//EN" 
        "http://www.w3.org/Graphics/SVG/1.1/DTD/svg11.dtd"> <svg xmlns="http://www.w3.org/2000/svg" width="200" height="200" fill="currentColor" class="bi bi-reception-4" viewBox="0 0 16 16" id="IconChangeColor"> <path d="M0 11.5a.5.5 0 0 1 .5-.5h2a.5.5 0 0 1 .5.5v2a.5.5 0 0 1-.5.5h-2a.5.5 0 0 1-.5-.5v-2zm4-3a.5.5 0 0 1 .5-.5h2a.5.5 0 0 1 .5.5v5a.5.5 0 0 1-.5.5h-2a.5.5 0 0 1-.5-.5v-5zm4-3a.5.5 0 0 1 .5-.5h2a.5.5 0 0 1 .5.5v8a.5.5 0 0 1-.5.5h-2a.5.5 0 0 1-.5-.5v-8zm4-3a.5.5 0 0 1 .5-.5h2a.5.5 0 0 1 .5.5v11a.5.5 0 0 1-.5.5h-2a.5.5 0 0 1-.5-.5v-11z" id="mainIconPathAttribute" fill="#ffffff"></path> </svg> 